<?xml version="1.0" encoding="UTF-8"?>
<svg width="100" height="100" version="1.1" xmlns="http://www.w3.org/2000/svg">
 <g transform="matrix(.34856 0 0 .34578 31.41 -190.09)">
  <path d="m53.333 549.73c-19.603 0-115.43 55.323-125.23 72.3-4.9008 8.4884-7.3667 40.394-7.3667 72.3 0 31.906 2.4659 63.812 7.3667 72.3 9.8016 16.977 105.63 72.3 125.23 72.3z" color="#000000" fill="#025"/>
  <path d="m53.332 549.73c19.603 0 115.43 55.323 125.23 72.3 4.9008 8.4884 7.3667 40.394 7.3667 72.3 0 31.906-2.4659 63.812-7.3667 72.3-9.8016 16.977-105.63 72.3-125.23 72.3z" color="#000000" fill="#04a"/>
 </g>
 <g transform="matrix(.30515 0 0 .30272 -59.499 -192.47)" color="#000000" fill="#fff" opacity=".95">
  <path d="m358.85 656.39c-19.603 0-115.45 55.325-125.25 72.302-4.9008 8.4884-7.3564 40.396-7.3564 72.302s2.4556 63.813 7.3564 72.302c9.8016 16.977 105.65 72.302 125.25 72.302 19.603 0 115.43-55.325 125.23-72.302 4.9008-8.4884 7.3564-40.396 7.3564-72.302s-2.4556-63.813-7.3564-72.302c-9.8016-16.977-105.63-72.302-125.23-72.302z" color="#000000" fill="#fff"/>
 </g>
 <g transform="matrix(.28241 0 0 .28016 -51.34 -174.41)">
  <path d="m358.84 656.4c-19.603 0-115.43 55.323-125.23 72.3-4.9008 8.4884-7.3667 40.394-7.3667 72.3 0 31.906 2.4659 63.812 7.3667 72.3 9.8016 16.977 105.63 72.3 125.23 72.3z" color="#000000" fill="#c90000"/>
  <path d="m358.84 656.4c19.603 0 115.43 55.323 125.23 72.3 4.9008 8.4884 7.3667 40.394 7.3667 72.3 0 31.906-2.4659 63.812-7.3667 72.3-9.8016 16.977-105.63 72.3-125.23 72.3z" color="#000000" fill="#a00"/>
 </g>
</svg>
